<svg width="20" height="14" viewBox="0 0 20 14" fill="none" xmlns="http://www.w3.org/2000/svg">
<path d="M15.6562 3.6748C16.3453 3.66025 17.0272 3.82333 17.6367 4.14844C18.1876 4.45371 18.6625 4.88182 19.0264 5.39941C19.3985 5.94243 19.6653 6.5518 19.8125 7.19531C19.9739 7.88654 20.0316 8.59908 19.9834 9.30762H13.5674C13.5155 9.97309 13.721 10.6329 14.1406 11.1484C14.3526 11.347 14.6027 11.5006 14.875 11.5986C15.1472 11.6966 15.4363 11.7371 15.7246 11.7188C16.1819 11.7304 16.6305 11.5904 17.001 11.3193C17.3024 11.1213 17.5307 10.8279 17.6504 10.4854H19.8047C19.5752 11.4605 19.0147 12.3239 18.2207 12.9248C17.459 13.4357 16.5583 13.6944 15.6445 13.665C14.9924 13.6737 14.345 13.5498 13.7412 13.3008C13.195 13.0706 12.705 12.7226 12.3057 12.2812C11.9079 11.8188 11.6029 11.2827 11.4062 10.7031C11.1856 10.0551 11.0775 9.37272 11.0869 8.6875C11.0829 8.01395 11.1947 7.34497 11.417 6.70996C11.7157 5.8165 12.2863 5.04125 13.0479 4.49609C13.8095 3.95094 14.7229 3.66308 15.6562 3.6748ZM5.78906 0.334961C6.32947 0.324822 6.86939 0.381069 7.39648 0.501953C7.84004 0.599846 8.26135 0.781477 8.6377 1.03809C8.98542 1.29342 9.26063 1.63743 9.43555 2.03418C9.6365 2.52197 9.73408 3.047 9.7207 3.5752C9.74353 4.15519 9.59653 4.72916 9.29883 5.22559C8.98561 5.6944 8.55264 6.06922 8.0459 6.30957C8.73351 6.49698 9.33277 6.9259 9.73535 7.51953C10.1219 8.14876 10.3162 8.87986 10.2939 9.62012C10.3067 10.2102 10.1854 10.7953 9.94043 11.3311C9.71389 11.7985 9.382 12.2068 8.97168 12.5215C8.54935 12.8326 8.07386 13.0624 7.56934 13.2002C7.04597 13.3465 6.50493 13.4203 5.96191 13.4189H0V0.334961H5.78906ZM5.65039 7.59375H2.70117V11.1973H5.59375C5.85035 11.2008 6.10651 11.1731 6.35645 11.1143C6.58489 11.0633 6.80195 10.9683 6.99512 10.835C7.18442 10.7016 7.338 10.5215 7.44043 10.3125C7.55909 10.0461 7.61371 9.75466 7.59961 9.46289C7.62529 9.19705 7.58981 8.92884 7.49707 8.67871C7.40426 8.42843 7.25588 8.20293 7.06348 8.01953C6.65569 7.71608 6.15603 7.56506 5.65039 7.59375ZM15.5771 5.65137C15.241 5.63841 14.9072 5.71303 14.6084 5.86914C14.3715 6.0009 14.1627 6.17878 13.9932 6.3916C13.843 6.5911 13.7309 6.81749 13.6631 7.05859C13.602 7.25962 13.5633 7.46699 13.5488 7.67676H17.5234C17.4888 7.1296 17.2911 6.60586 16.957 6.17383L16.9561 6.17285C16.7765 5.99138 16.5601 5.85076 16.3223 5.76074C16.0845 5.67077 15.8304 5.63378 15.5771 5.65137ZM2.70117 5.63867H5.44531V5.62695C5.86983 5.64458 6.28795 5.5162 6.63086 5.2627C6.7951 5.11495 6.92283 4.93018 7.00391 4.72363C7.08492 4.51721 7.11696 4.29445 7.09766 4.07324C7.10865 3.81472 7.05777 3.55663 6.94922 3.32227C6.85713 3.13577 6.7133 2.97977 6.53613 2.87305C6.35675 2.7557 6.15525 2.67732 5.94434 2.64258C5.71535 2.59776 5.48222 2.5767 5.24902 2.58105H2.70117V5.63867ZM18.0166 2.49512H13.0371V1.20898H18.0166V2.49512Z" fill="#666666"/>
</svg>
