<svg width="20" height="21" viewBox="0 0 20 21" fill="none" xmlns="http://www.w3.org/2000/svg">
<path d="M9.52344 0.151367C9.81181 -0.0505721 10.1882 -0.0506562 10.4766 0.151367L19.6172 6.5498C19.6219 6.55313 19.6264 6.5579 19.6309 6.56152C19.6443 6.57112 19.657 6.58233 19.6699 6.59277C19.6865 6.60653 19.7032 6.62018 19.7188 6.63477C19.7303 6.64608 19.7416 6.65874 19.7529 6.6709C19.7677 6.68672 19.7824 6.70278 19.7959 6.71973C19.806 6.73231 19.8159 6.74495 19.8252 6.75781C19.8381 6.77563 19.8507 6.79481 19.8623 6.81348C19.8705 6.8271 19.879 6.84031 19.8867 6.85449C19.8975 6.87401 19.9069 6.89468 19.916 6.91504C19.9224 6.92936 19.9287 6.94438 19.9346 6.95898C19.9431 6.98067 19.9503 7.00245 19.957 7.02441C19.9616 7.03912 19.9667 7.05337 19.9707 7.06836C19.9772 7.09323 19.9808 7.11882 19.9854 7.14453C19.9875 7.15733 19.9906 7.16982 19.9922 7.18262C19.997 7.22162 20 7.26121 20 7.30078V13.6992C20 13.7391 19.997 13.7784 19.9922 13.8174C19.9906 13.8306 19.9875 13.8435 19.9854 13.8564C19.9808 13.8815 19.9771 13.9069 19.9707 13.9316C19.9667 13.9466 19.9616 13.9612 19.957 13.9756C19.9503 13.9979 19.9432 14.0202 19.9346 14.042C19.9287 14.0567 19.9224 14.0708 19.916 14.085C19.9069 14.1053 19.8974 14.1258 19.8867 14.1455C19.879 14.1595 19.8706 14.1734 19.8623 14.1865C19.8507 14.2055 19.8381 14.2241 19.8252 14.2422C19.8158 14.2557 19.8061 14.2686 19.7959 14.2812C19.7825 14.2979 19.7677 14.3146 19.7529 14.3301C19.7418 14.3418 19.7302 14.3534 19.7188 14.3643C19.7031 14.3792 19.6866 14.3943 19.6699 14.4082C19.6571 14.4186 19.6442 14.4287 19.6309 14.4385C19.6263 14.4421 19.622 14.4468 19.6172 14.4502L10.4766 20.8486C10.3325 20.9498 10.1662 21 10 21C9.83365 21 9.66774 20.9498 9.52344 20.8486L0.382812 14.4502C0.377695 14.4468 0.373012 14.4422 0.368164 14.4385C0.35483 14.4287 0.341915 14.4186 0.329102 14.4082C0.312697 14.3944 0.296578 14.3792 0.28125 14.3643C0.269554 14.3534 0.257977 14.3418 0.24707 14.3301C0.232099 14.3146 0.217744 14.2978 0.204102 14.2812C0.193867 14.2685 0.183255 14.2558 0.173828 14.2422C0.160922 14.2241 0.14926 14.2054 0.137695 14.1865C0.129415 14.1733 0.120761 14.1595 0.113281 14.1455C0.102287 14.1258 0.0928422 14.1053 0.0839844 14.085C0.0776126 14.0708 0.0710123 14.0567 0.0654297 14.042C0.0570839 14.0202 0.0496997 13.9979 0.0429688 13.9756C0.03839 13.9612 0.0330676 13.9466 0.0292969 13.9316C0.023143 13.9069 0.0189366 13.8815 0.0146484 13.8564C0.0125041 13.8435 0.00969907 13.8306 0.0078125 13.8174C0.00296441 13.7784 0 13.7391 0 13.6992V7.30078C2.92107e-06 7.26121 0.00296704 7.22162 0.0078125 7.18262C0.00968364 7.16983 0.012517 7.15731 0.0146484 7.14453C0.0189545 7.11882 0.0231094 7.09323 0.0292969 7.06836C0.0330676 7.05337 0.03839 7.03912 0.0429688 7.02441C0.0496673 7.00248 0.0571335 6.98064 0.0654297 6.95898C0.0710461 6.94438 0.0775582 6.92936 0.0839844 6.91504C0.0928725 6.89468 0.102238 6.87401 0.113281 6.85449C0.120725 6.84027 0.129459 6.82714 0.137695 6.81348C0.149277 6.79481 0.1609 6.77563 0.173828 6.75781C0.183253 6.74481 0.19387 6.73245 0.204102 6.71973C0.217815 6.70279 0.232014 6.68671 0.24707 6.6709C0.258113 6.65874 0.269399 6.64608 0.28125 6.63477C0.296397 6.62028 0.31291 6.60643 0.329102 6.59277L0.382812 6.5498L9.52344 0.151367Z" fill="#666666"/>
<path fill-rule="evenodd" clip-rule="evenodd" d="M14.5854 9.41415L10.8594 6.79764V2.58838L17.5934 7.30188L14.5854 9.41415Z" fill="white"/>
<path fill-rule="evenodd" clip-rule="evenodd" d="M16.1309 10.4999L18.2813 8.98975V12.0098L16.1309 10.4999Z" fill="white"/>
<path fill-rule="evenodd" clip-rule="evenodd" d="M10.8594 14.2024L14.5854 11.5859L17.5934 13.6982L10.8594 18.4117V14.2024Z" fill="white"/>
<path fill-rule="evenodd" clip-rule="evenodd" d="M5.41444 11.5859L9.14047 14.2024V18.4117L2.40674 13.6982L5.41444 11.5859Z" fill="white"/>
<path fill-rule="evenodd" clip-rule="evenodd" d="M3.86888 10.4999L1.71875 12.0098V8.98975L3.86888 10.4999Z" fill="white"/>
<path fill-rule="evenodd" clip-rule="evenodd" d="M9.14047 6.79764L5.41444 9.41415L2.40674 7.30188L9.14047 2.58838V6.79764Z" fill="white"/>
<path fill-rule="evenodd" clip-rule="evenodd" d="M10.0002 12.6347L6.96045 10.5001L10.0002 8.36523L13.04 10.5001L10.0002 12.6347Z" fill="white"/>
</svg>
