<svg width="20" height="20" viewBox="0 0 20 20" fill="none" xmlns="http://www.w3.org/2000/svg">
<path d="M10.0078 0C15.5255 0 20.0164 4.58372 20 10.2539C19.9998 14.7862 17.1329 18.6222 13.1562 19.9805C12.6595 20.0822 12.4776 19.7599 12.4775 19.4883C12.4775 19.1489 12.4932 18.0449 12.4932 16.6699C12.4931 15.7027 12.1789 15.092 11.8145 14.7695C14.0515 14.5147 16.3877 13.6484 16.3877 9.70996C16.3876 8.58964 16.0066 7.67283 15.3604 6.95996C15.4598 6.705 15.8075 5.65263 15.2607 4.24414C15.2505 4.24092 14.4038 3.98077 12.5098 5.29688C11.7144 5.07631 10.8527 4.95703 10.0078 4.95703C9.16287 4.95803 8.32148 5.07247 7.50586 5.29688C5.6147 3.98262 4.76842 4.24021 4.75586 4.24414C4.20903 5.6528 4.55683 6.70515 4.65625 6.95996C4.02655 7.67283 3.62896 8.58964 3.62891 9.70996C3.62891 13.6485 5.96507 14.5318 8.18555 14.7695C7.90396 15.0242 7.6384 15.4827 7.55566 16.1445C6.97548 16.4162 5.5341 16.8563 4.63965 15.2949C4.62818 15.2738 4.09828 14.3104 3.09863 14.2432C3.09863 14.2432 2.12101 14.243 3.03223 14.8711C3.04197 14.8756 3.69849 15.1851 4.14258 16.3643C4.14258 16.3643 4.72215 18.1979 7.50586 17.5869C7.50586 18.4357 7.52245 19.2503 7.52246 19.4883C7.52246 19.7597 7.34069 20.0823 6.84375 19.9805C2.86711 18.6226 0.000171529 14.7862 0 10.2539C0 4.58388 4.47371 0.000254914 10.0078 0Z" fill="#666666"/>
</svg>
