<svg width="22" height="11" viewBox="0 0 22 11" fill="none" xmlns="http://www.w3.org/2000/svg">
<path d="M7.22168 0.00488281C7.78406 -0.0218253 8.24988 0.432135 8.25 0.995117C8.25 1.5364 7.81896 1.97768 7.27832 2.00391C6.81571 2.02635 6.38528 2.0559 5.98438 2.09277C4.64817 2.21569 3.78431 2.41565 3.21973 2.66699C2.71757 2.89059 2.49001 3.13506 2.33984 3.42871C2.15679 3.78697 2.00002 4.40201 2 5.50098C2.00003 6.60004 2.15676 7.21503 2.33984 7.57324C2.49002 7.86689 2.71754 8.11137 3.21973 8.33496C3.78431 8.5863 4.64818 8.78626 5.98438 8.90918C6.3852 8.94604 6.81581 8.97393 7.27832 8.99609C7.81915 9.02211 8.25 9.46438 8.25 10.0059C8.24975 10.569 7.78328 11.0228 7.2207 10.9961C1.88636 10.7426 0.000104929 9.6489 0 5.50098L0.0078125 5.04395C0.147105 1.2712 2.0879 0.248742 7.22168 0.00488281ZM14.7783 0.00390625C19.9121 0.247911 21.8529 1.27121 21.9922 5.04395L22 5.50098C21.9999 9.6489 20.1136 10.7426 14.7793 10.9961C14.2167 11.0228 13.7502 10.569 13.75 10.0059C13.75 9.46438 14.1809 9.02211 14.7217 8.99609C15.1842 8.97393 15.6148 8.94604 16.0156 8.90918C17.3518 8.78626 18.2157 8.5863 18.7803 8.33496C19.2825 8.11137 19.51 7.86689 19.6602 7.57324C19.8432 7.21503 20 6.60004 20 5.50098C20 4.40201 19.8432 3.78697 19.6602 3.42871C19.51 3.13506 19.2824 2.89059 18.7803 2.66699C18.2157 2.41565 17.3518 2.21569 16.0156 2.09277C15.6148 2.05591 15.1842 2.02635 14.7217 2.00391C14.181 1.97755 13.7501 1.53647 13.75 0.995117C13.75 0.431786 14.2156 -0.0227859 14.7783 0.00390625ZM15.584 4.50098C16.1359 4.50142 16.584 4.94896 16.584 5.50098C16.5838 6.05283 16.1358 6.50054 15.584 6.50098H6.41699C5.86482 6.50098 5.41718 6.0531 5.41699 5.50098C5.41699 4.94869 5.86471 4.50098 6.41699 4.50098H15.584Z" fill="#666666"/>
</svg>
