<svg width="20" height="20" viewBox="0 0 20 20" fill="none" xmlns="http://www.w3.org/2000/svg">
<path d="M18.5293 0C18.9193 0 19.2935 0.154876 19.5693 0.430664C19.8451 0.706453 20 1.08068 20 1.4707V18.5293C20 18.9193 19.8451 19.2935 19.5693 19.5693C19.2935 19.8451 18.9193 20 18.5293 20H1.4707C1.08068 20 0.706453 19.8451 0.430664 19.5693C0.154876 19.2935 0 18.9193 0 18.5293V1.4707C0 1.08068 0.154875 0.706453 0.430664 0.430664C0.706453 0.154875 1.08068 0 1.4707 0H18.5293ZM2.94141 17.0586H5.88281V7.64746H2.94141V17.0586ZM13.4707 7.41211C12.8853 7.3828 12.3025 7.50726 11.7803 7.77344C11.258 8.03973 10.8143 8.43859 10.4941 8.92969H10.4121V7.64746H7.64746V17.0586H10.5879V12.0527C10.5454 11.5401 10.7077 11.031 11.0381 10.6367C11.3684 10.2428 11.8407 9.99517 12.3525 9.94727H12.4648C13.4001 9.94732 14.0937 10.5353 14.0938 12.0176V17.0586H17.0352L17.0586 11.3408C17.0584 8.51173 15.2588 7.41216 13.4707 7.41211ZM4.41211 2.70605C3.95968 2.70605 3.52499 2.88516 3.20508 3.20508C2.88516 3.52499 2.70605 3.95968 2.70605 4.41211C2.70615 4.86435 2.88533 5.29834 3.20508 5.61816C3.52499 5.93808 3.95968 6.11719 4.41211 6.11719C4.63449 6.12261 4.85594 6.08496 5.06348 6.00488C5.27109 5.92477 5.46094 5.80388 5.62207 5.65039C5.78306 5.49698 5.91287 5.31368 6.00293 5.11035C6.09302 4.90689 6.1421 4.68729 6.14746 4.46484V4.41211C6.14901 4.18966 6.10615 3.96881 6.02246 3.7627C5.93875 3.55656 5.8154 3.36837 5.65918 3.20996C5.503 3.05166 5.31716 2.92539 5.1123 2.83887C4.9074 2.75233 4.68727 2.70761 4.46484 2.70605H4.41211Z" fill="#666666"/>
</svg>
