<svg width="20" height="12" viewBox="0 0 20 12" fill="none" xmlns="http://www.w3.org/2000/svg">
<path d="M5.96777 0C9.26319 0.000251287 11.9345 2.68654 11.9346 6C11.9346 9.31351 9.26302 11.9997 5.96777 12C2.67231 12 0 9.31305 0 6C5.41271e-05 2.68699 2.67214 0 5.96777 0ZM14.918 0.351562C16.5658 0.351562 17.9014 2.88009 17.9014 6C17.9013 9.11896 16.5658 11.6484 14.918 11.6484C13.2703 11.6482 11.9347 9.1188 11.9346 6C11.9346 2.88094 13.2702 0.351621 14.918 0.351562ZM18.9502 0.939453C19.5296 0.939453 20 3.20524 20 6C20 8.79383 19.5298 11.0596 18.9502 11.0596C18.3707 11.0587 17.9014 8.79391 17.9014 6C17.9014 3.20597 18.3709 0.940306 18.9502 0.939453Z" fill="#666666"/>
</svg>
