<svg width="20" height="20" viewBox="0 0 20 20" fill="none" xmlns="http://www.w3.org/2000/svg">
<path d="M1.92627 2.11816C2.04975 1.87128 2.35024 1.77119 2.59717 1.89453C3.31859 2.25524 3.94118 2.63108 4.36963 3.18848C4.72945 3.65679 4.92106 4.2136 4.98096 4.90918H16.2202C16.8039 4.90918 17.2979 5.10533 17.6421 5.47656C17.9803 5.84157 18.1264 6.32469 18.1265 6.81543C18.1265 9.6524 17.661 11.5892 16.4575 12.793C15.2516 13.9988 13.4276 14.3457 11.0649 14.3457C8.70276 14.3457 6.85588 13.9993 5.64697 12.5889C4.46408 11.2083 4.00342 8.92931 4.00342 5.40918C4.00336 4.61371 3.84312 4.14468 3.57666 3.79785C3.29607 3.43284 2.85282 3.14052 2.1499 2.78906C1.90305 2.66551 1.80281 2.36509 1.92627 2.11816ZM5.0083 5.90918C5.05227 9.10487 5.52597 10.9108 6.40674 11.9385C7.30671 12.9884 8.74098 13.3457 11.0649 13.3457C13.3889 13.3457 14.8463 12.9889 15.7495 12.0859C16.6548 11.1806 17.1265 9.60228 17.1265 6.81543C17.1264 6.51713 17.039 6.29684 16.9087 6.15625C16.7842 6.02198 16.5736 5.90918 16.2202 5.90918H5.0083Z" fill="#666666"/>
<ellipse cx="8.094" cy="16.7522" rx="1.40602" ry="1.40601" fill="#666666"/>
<ellipse cx="11.906" cy="16.7522" rx="1.40601" ry="1.40601" fill="#666666"/>
</svg>
