<svg width="20" height="20" viewBox="0 0 20 20" fill="none" xmlns="http://www.w3.org/2000/svg">
<path d="M10.0005 3.3501C11.3686 3.3502 12.7018 4.03083 14.8276 5.21338C15.8954 5.80735 16.7314 6.27177 17.2964 6.66455C17.5792 6.86122 17.8231 7.05952 17.9995 7.26807C18.178 7.47903 18.3198 7.73976 18.3198 8.05029C18.3197 8.3607 18.1779 8.62163 17.9995 8.83252C17.8231 9.04094 17.5791 9.23948 17.2964 9.43604C16.8981 9.7129 16.3633 10.0218 15.7095 10.3901C15.7601 10.8338 15.775 11.3923 15.7788 12.0952L15.7798 12.9497C15.7798 16.2311 14.5848 17.0514 10.7739 17.1411L9.97705 17.1499C5.23669 17.1499 4.22021 16.4497 4.22021 12.9497L4.22119 12.0952C4.22406 11.3909 4.23658 10.8313 4.28467 10.3872C3.63347 10.0204 3.10057 9.71204 2.70361 9.43604C2.69567 9.4305 2.68806 9.42398 2.68018 9.41846V13.6499C2.68007 13.926 2.45625 14.1499 2.18018 14.1499C1.90424 14.1497 1.68028 13.9259 1.68018 13.6499V8.05029C1.68018 7.73997 1.82221 7.47895 2.00049 7.26807C2.17686 7.05958 2.42089 6.86116 2.70361 6.66455C3.26855 6.27173 4.10539 5.80745 5.17334 5.21338C7.29915 4.03085 8.63238 3.3502 10.0005 3.3501ZM5.24658 10.9272C5.22151 11.4204 5.22021 12.0676 5.22021 12.9438V12.9497C5.22021 14.6889 5.49713 15.2557 5.90674 15.5522C6.1505 15.7286 6.54833 15.8903 7.23389 15.9985C7.91685 16.1063 8.80684 16.1499 9.97705 16.1499C11.0702 16.1499 11.9262 16.1063 12.6001 15.9985C13.2756 15.8905 13.7011 15.7273 13.98 15.5366C14.4469 15.2172 14.7798 14.6194 14.7798 12.9497C14.7798 12.0703 14.7766 11.4221 14.7495 10.9292C12.6687 12.0851 11.3519 12.7504 10.0005 12.7505C8.6481 12.7504 7.33007 12.0848 5.24658 10.9272ZM10.0005 4.3501C8.94187 4.3502 7.84681 4.87021 5.65869 6.0874C4.57006 6.69298 3.7884 7.1288 3.2749 7.48584C3.01868 7.66402 2.85734 7.80344 2.76416 7.91357C2.71966 7.96622 2.69789 8.00362 2.68799 8.02588L2.68018 8.04932V8.05029L2.68799 8.07373C2.69784 8.09599 2.71934 8.13402 2.76416 8.18701C2.85739 8.29714 3.01874 8.43662 3.2749 8.61475C3.78845 8.9718 4.57001 9.40758 5.65869 10.0132C7.84681 11.2304 8.94187 11.7504 10.0005 11.7505C11.0591 11.7504 12.1534 11.2303 14.3413 10.0132C15.4302 9.40746 16.2125 8.97184 16.7261 8.61475C16.9819 8.43686 17.1426 8.29707 17.2358 8.18701C17.2805 8.13418 17.3021 8.09603 17.312 8.07373C17.3166 8.06337 17.3191 8.05641 17.3198 8.05322V8.04639C17.3191 8.04322 17.3166 8.03627 17.312 8.02588C17.3021 8.00357 17.2804 7.96626 17.2358 7.91357C17.1426 7.80348 16.9821 7.66391 16.7261 7.48584C16.2125 7.12874 15.4302 6.69315 14.3413 6.0874C12.1533 4.87027 11.0591 4.3502 10.0005 4.3501Z" fill="#666666"/>
</svg>
