<svg width="20" height="20" viewBox="0 0 20 20" fill="none" xmlns="http://www.w3.org/2000/svg">
<path d="M8.39844 2.04492C9.37102 1.3208 10.6943 1.31815 11.6699 2.03809C14.093 3.82603 18.3538 7.07774 18.4062 7.87012C18.4796 8.97841 18.6968 11.9363 18.042 15.2627L17.9648 15.5977C17.5385 17.2135 16.4617 17.9633 14.4004 18.2207L13.6143 18.3105C13.353 18.3376 13.0924 18.3615 12.833 18.3828C10.9203 18.5398 9.05362 18.5388 7.16699 18.3799C6.91718 18.3588 6.66668 18.3352 6.41602 18.3086L5.66211 18.2207C3.46423 17.9404 2.42209 17.0978 2.02051 15.2627C1.29265 11.9362 1.49002 8.98077 1.65723 7.87012C1.77665 7.07713 5.99564 3.83391 8.39844 2.04492ZM8.58301 11.9941C8.39191 11.9943 8.15834 12.0951 7.96289 12.291C7.7675 12.4869 7.66699 12.7214 7.66699 12.9141V17.4141C9.21926 17.5253 10.7608 17.5259 12.333 17.416V12.9141C12.333 12.7214 12.2325 12.4869 12.0371 12.291C11.8417 12.0951 11.6081 11.9943 11.417 11.9941H8.58301ZM11.0762 2.84277C10.455 2.38443 9.61579 2.38626 8.99609 2.84766C7.79861 3.73923 6.15882 4.98475 4.80859 6.10156C4.13142 6.66168 3.5441 7.17584 3.125 7.58887C2.91408 7.79674 2.7637 7.96127 2.66992 8.08105C2.65339 8.10218 2.64127 8.12121 2.63086 8.13574C2.48214 9.23727 2.32592 11.9783 2.99805 15.0498C3.16579 15.816 3.43763 16.2555 3.79785 16.5479C4.17899 16.8571 4.77905 17.0998 5.78809 17.2285C6.08188 17.266 6.37503 17.2984 6.66699 17.3281V12.9141C6.66699 12.3969 6.9201 11.9215 7.25586 11.585C7.59147 11.2487 8.06602 10.9942 8.58301 10.9941H11.417C11.934 10.9942 12.4085 11.2487 12.7441 11.585C13.0799 11.9215 13.333 12.3969 13.333 12.9141V17.332C13.6457 17.3012 13.9601 17.268 14.2764 17.2285C15.2889 17.1021 15.8987 16.8616 16.2832 16.5527C16.6426 16.264 16.911 15.8298 17.0605 15.0703C17.6613 12.0185 17.4951 9.2813 17.416 8.08691C17.4113 8.08039 17.4069 8.07285 17.4014 8.06543C17.3159 7.95162 17.1732 7.79021 16.9658 7.58301C16.5544 7.17208 15.9692 6.65861 15.29 6.09766C13.9369 4.98009 12.2835 3.73364 11.0762 2.84277Z" fill="#666666"/>
</svg>
