<svg width="20" height="20" viewBox="0 0 20 20" fill="none" xmlns="http://www.w3.org/2000/svg">
<path d="M10.001 1.60352C11.1682 1.60368 12.1388 1.96371 12.8438 2.625C13.529 3.26823 13.9198 4.15877 14.0293 5.16895C16.215 5.50631 17.3974 6.26439 17.9873 7.77051C18.3177 8.61409 18.4622 9.69204 18.4932 11.0615L18.5 11.666C18.5 17.2075 16.9997 18.3955 10 18.3955C3.00025 18.3955 1.5 17.2075 1.5 11.666L1.50684 11.0615C1.53781 9.69204 1.6823 8.61409 2.0127 7.77051C2.60263 6.26435 3.78487 5.50532 5.9707 5.16797C6.08035 4.15794 6.47185 3.26807 7.15723 2.625C7.86237 1.96346 8.83334 1.60352 10.001 1.60352ZM17.3232 9.12988C16.9337 9.48167 16.4458 9.89123 15.8809 10.3008C14.3838 11.386 12.2816 12.5205 10 12.5205C7.71844 12.5205 5.61616 11.386 4.11914 10.3008C3.55394 9.89104 3.06537 9.48178 2.67578 9.12988C2.55647 9.79705 2.50001 10.6261 2.5 11.666C2.5 14.4396 2.90254 15.6574 3.74609 16.3252C4.19134 16.6776 4.85497 16.9561 5.89258 17.1387C6.9309 17.3213 8.268 17.3955 10 17.3955C11.732 17.3955 13.0691 17.3213 14.1074 17.1387C15.145 16.9561 15.8087 16.6776 16.2539 16.3252C17.0975 15.6574 17.5 14.4396 17.5 11.666C17.5 10.626 17.4426 9.79708 17.3232 9.12988ZM10 5.9375C7.55549 5.9375 5.92273 6.08727 4.81641 6.45801C3.83017 6.78858 3.30518 7.27725 2.98047 8.04688C2.9896 8.05564 2.99947 8.06433 3.00879 8.07324C3.4134 8.46001 3.99593 8.97542 4.70605 9.49023C6.14028 10.53 8.03171 11.5205 10 11.5205C11.9683 11.5205 13.8597 10.53 15.2939 9.49023C16.0041 8.97542 16.5866 8.46001 16.9912 8.07324C17.0004 8.0645 17.0096 8.05548 17.0186 8.04688C16.6938 7.27745 16.1697 6.78853 15.1836 6.45801C14.0773 6.08727 12.4445 5.9375 10 5.9375ZM10.001 2.60449C9.04384 2.60449 8.33195 2.89471 7.8418 3.35449C7.40695 3.7625 7.11188 4.33607 6.99414 5.04785C7.86115 4.97078 8.8572 4.9375 10 4.9375C11.1428 4.9375 12.1388 4.97078 13.0059 5.04785C12.8881 4.33647 12.5946 3.76243 12.1602 3.35449C11.6701 2.89472 10.9578 2.60466 10.001 2.60449Z" fill="#666666"/>
</svg>
