<svg width="20" height="20" viewBox="0 0 20 20" fill="none" xmlns="http://www.w3.org/2000/svg">
<path d="M10 11.417C16.382 11.417 17.907 12.0033 17.9961 14.6914L18 14.958C18 17.8746 16.588 18.5 10 18.5C3.412 18.5 2 17.8746 2 14.958L2.00391 14.6914C2.09301 12.0033 3.61799 11.417 10 11.417ZM10 12.417C8.36263 12.417 7.07776 12.4554 6.06836 12.5547C5.04967 12.6549 4.3791 12.8111 3.93457 13.0078C3.52157 13.1907 3.33135 13.3949 3.2168 13.623C3.08388 13.8879 3.00003 14.2914 3 14.958C3 15.6249 3.08383 16.0291 3.2168 16.2939C3.33136 16.5221 3.52167 16.7254 3.93457 16.9082C4.37908 17.105 5.04952 17.2611 6.06836 17.3613C7.07776 17.4606 8.36263 17.5 10 17.5C11.6374 17.5 12.9222 17.4606 13.9316 17.3613C14.9505 17.2611 15.6209 17.105 16.0654 16.9082C16.4783 16.7254 16.6686 16.5221 16.7832 16.2939C16.9162 16.0291 17 15.6249 17 14.958C17 14.2914 16.9161 13.8879 16.7832 13.623C16.6687 13.3949 16.4784 13.1907 16.0654 13.0078C15.6209 12.8111 14.9503 12.6549 13.9316 12.5547C12.9222 12.4554 11.6374 12.417 10 12.417ZM10.001 1.5C12.4106 1.50044 14.3643 3.40306 14.3643 5.75C14.3643 8.09694 12.4106 9.99956 10.001 10C7.66634 10 5.75948 8.21429 5.64258 5.96875L5.63672 5.75C5.63672 3.40279 7.59101 1.5 10.001 1.5ZM10.001 2.5C8.11825 2.5 6.63672 3.97978 6.63672 5.75C6.63672 7.52022 8.11825 9 10.001 9C11.8833 8.99956 13.3643 7.51995 13.3643 5.75C13.3643 3.98005 11.8833 2.50044 10.001 2.5Z" fill="#666666"/>
</svg>
